<?xml version="1.0" encoding="UTF-8" standalone="no"?>
<!-- Created with Inkscape (http://www.inkscape.org/) -->

<svg
   xmlns:dc="http://purl.org/dc/elements/1.1/"
   xmlns:cc="http://creativecommons.org/ns#"
   xmlns:rdf="http://www.w3.org/1999/02/22-rdf-syntax-ns#"
   xmlns:svg="http://www.w3.org/2000/svg"
   xmlns="http://www.w3.org/2000/svg"
   xmlns:sodipodi="http://sodipodi.sourceforge.net/DTD/sodipodi-0.dtd"
   xmlns:inkscape="http://www.inkscape.org/namespaces/inkscape"
   width="96.077499"
   height="24.585455"
   id="svg2"
   version="1.1"
   inkscape:version="0.48.4 r9939"
   sodipodi:docname="logo.svg">
  <defs
     id="defs4" />
  <sodipodi:namedview
     id="base"
     pagecolor="#ffffff"
     bordercolor="#666666"
     borderopacity="1.0"
     inkscape:pageopacity="0.0"
     inkscape:pageshadow="2"
     inkscape:zoom="1.979899"
     inkscape:cx="153.78851"
     inkscape:cy="-85.054414"
     inkscape:document-units="px"
     inkscape:current-layer="layer1"
     showgrid="false"
     fit-margin-top="0"
     fit-margin-left="0"
     fit-margin-right="0"
     fit-margin-bottom="0"
     inkscape:window-width="1855"
     inkscape:window-height="1056"
     inkscape:window-x="65"
     inkscape:window-y="24"
     inkscape:window-maximized="1" />
  <metadata
     id="metadata7">
    <rdf:RDF>
      <cc:Work
         rdf:about="">
        <dc:format>image/svg+xml</dc:format>
        <dc:type
           rdf:resource="http://purl.org/dc/dcmitype/StillImage" />
        <dc:title />
      </cc:Work>
    </rdf:RDF>
  </metadata>
  <g
     inkscape:label="Layer 1"
     inkscape:groupmode="layer"
     id="layer1"
     transform="translate(-46.888902,-362.92602)">
    <g
       transform="translate(1.0101525,0)"
       style="font-size:20px;font-style:normal;font-variant:normal;font-weight:normal;font-stretch:normal;line-height:125%;letter-spacing:0px;word-spacing:0px;fill:#000000;fill-opacity:1;stroke:none;font-family:Sansita One;-inkscape-font-specification:Sansita One"
       id="flowRoot2985">
      <path
         d="m 59.03875,369.22602 c -1.3e-5,5.68 -3.08001,8.52 -9.24,8.52 -0.98667,0 -2.293335,-0.12 -3.92,-0.36 l 2.24,-11.82 c 0.106664,-0.53332 0.193331,-0.95332 0.26,-1.26 2.026662,-0.14665 3.486661,-0.21999 4.38,-0.22 0.906659,10e-6 1.773325,0.0933 2.6,0.28 0.826656,0.18668 1.513322,0.48668 2.06,0.9 1.079987,0.81334 1.619987,2.13334 1.62,3.96 m -4.12,-0.74 c -9e-6,-1.98666 -0.713342,-2.97999 -2.14,-2.98 l -0.2,0 c -0.06667,1e-5 -0.13334,0.007 -0.2,0.02 l -2.06,10.74 c 0.05333,0.0267 0.106662,0.04 0.16,0.04 l 0.16,0 c 0.493328,0 0.993327,-0.15333 1.5,-0.46 0.519993,-0.30667 0.979993,-0.77333 1.38,-1.4 0.933325,-1.45333 1.399991,-3.43999 1.4,-5.96"
         style=""
         id="path2996" />
      <path
         d="m 60.903125,376.92602 c -0.306668,-0.34667 -0.533334,-0.79333 -0.68,-1.34 -0.133334,-0.54666 -0.2,-1.26666 -0.2,-2.16 0,-0.89333 0.153333,-1.74666 0.46,-2.56 0.306666,-0.81333 0.739998,-1.51333 1.3,-2.1 1.146663,-1.22666 2.666662,-1.83999 4.56,-1.84 0.679993,1e-5 1.266659,0.11334 1.76,0.34 l 3.42,-0.34 -1.48,7.8 c -0.04001,0.16 -0.06001,0.38667 -0.06,0.68 -1e-5,0.29333 0.08666,0.53333 0.26,0.72 0.186656,0.18667 0.413322,0.29333 0.68,0.32 -0.133344,0.45333 -0.446677,0.81333 -0.94,1.08 -0.48001,0.26667 -0.993343,0.4 -1.54,0.4 -0.546675,0 -1.006674,-0.10667 -1.38,-0.32 -0.360007,-0.2 -0.59334,-0.47333 -0.7,-0.82 -0.21334,0.33333 -0.546673,0.60667 -1,0.82 -0.453339,0.21333 -0.986671,0.32 -1.6,0.32 -0.600003,0 -1.14667,-0.08 -1.64,-0.24 -0.493335,-0.16 -0.900002,-0.41333 -1.22,-0.76 m 4.22,-8.12 c -0.146672,0.24001 -0.286672,0.56667 -0.42,0.98 -0.133338,0.40001 -0.313338,1.14667 -0.54,2.24 -0.213338,1.08 -0.320004,2.00667 -0.32,2.78 -4e-6,0.77333 0.06,1.27333 0.18,1.5 0.119996,0.22667 0.286662,0.34 0.5,0.34 0.426661,0 0.793328,-0.2 1.1,-0.6 0.319994,-0.41333 0.539994,-0.98 0.66,-1.7 l 1.06,-5.86 c -0.280007,-0.23999 -0.586674,-0.35999 -0.92,-0.36 -0.320006,1e-5 -0.580006,0.0533 -0.78,0.16 -0.186672,0.10668 -0.360006,0.28001 -0.52,0.52"
         style=""
         id="path2998" />
      <path
         d="m 87.02125,377.92602 c -1.613346,0 -2.420012,-0.62667 -2.42,-1.88 -1.2e-5,-0.54667 0.113321,-1.34666 0.34,-2.4 0.239987,-1.06666 0.399987,-1.81333 0.48,-2.24 0.186653,-0.97333 0.279987,-1.61333 0.28,-1.92 -1.3e-5,-0.67999 -0.253347,-1.01999 -0.76,-1.02 -0.333346,10e-6 -0.660012,0.23334 -0.98,0.7 -0.320011,0.45334 -0.553344,1.14001 -0.7,2.06 l -1.24,6.3 -3.9,0.4 1.08,-5.44 c 0.119993,-0.6 0.233326,-1.23999 0.34,-1.92 0.106659,-0.67999 0.159993,-1.07333 0.16,-1.18 -7e-6,-0.61333 -0.226674,-0.91999 -0.68,-0.92 -0.306673,10e-6 -0.626673,0.22667 -0.96,0.68 -0.333339,0.45334 -0.593339,1.14667 -0.78,2.08 l -1.22,6.3 -3.94,0.4 2.1,-10.6 3.26,-0.4 -0.34,2.02 c 0.346661,-0.71999 0.839994,-1.23332 1.48,-1.54 0.639993,-0.31999 1.459992,-0.47999 2.46,-0.48 0.573324,1e-5 1.046657,0.14001 1.42,0.42 0.373323,0.28001 0.619989,0.64668 0.74,1.1 0.226655,-0.46666 0.626655,-0.83332 1.2,-1.1 0.586654,-0.27999 1.23332,-0.41999 1.94,-0.42 0.719985,1e-5 1.253318,0.08 1.6,0.24 0.359984,0.14668 0.64665,0.34668 0.86,0.6 0.359983,0.46668 0.539983,1.12667 0.54,1.98 -1.7e-5,0.84001 -0.180017,2.13334 -0.54,3.88 -0.186683,0.85334 -0.280016,1.44 -0.28,1.76 -1.6e-5,0.30667 0.08665,0.55333 0.26,0.74 0.18665,0.18667 0.413316,0.29333 0.68,0.32 -0.13335,0.45333 -0.43335,0.81333 -0.9,1.08 -0.453349,0.26667 -0.980015,0.4 -1.58,0.4"
         style=""
         id="path3000" />
      <path
         d="m 99.51875,377.92602 c -1.613341,0 -2.420006,-0.62667 -2.42,-1.88 0.01333,-0.34667 0.07333,-0.81333 0.18,-1.4 l 0.36,-1.84 c 0.359993,-1.73333 0.539993,-2.79333 0.54,-3.18 -7e-6,-0.77333 -0.226674,-1.15999 -0.68,-1.16 -0.760006,10e-6 -1.340005,0.99334 -1.74,2.98 l -1.18,6.08 -4.02,0.4 2.08,-10.62 3.28,-0.38 -0.32,1.96 c 0.626661,-1.30666 1.899993,-1.95999 3.82,-1.96 0.93332,1e-5 1.59332,0.20001 1.98,0.6 0.39999,0.38668 0.59999,1.02001 0.6,1.9 -1e-5,0.82667 -0.21334,2.20667 -0.64,4.14 -0.20001,0.86667 -0.30001,1.46667 -0.3,1.8 -1e-5,0.32 0.0867,0.57333 0.26,0.76 0.18666,0.18667 0.41332,0.29333 0.68,0.32 -0.13334,0.45333 -0.43334,0.81333 -0.9,1.08 -0.45334,0.26667 -0.98001,0.4 -1.58,0.4"
         style=""
         id="path3002" />
      <path
         d="m 111.39781,365.92602 c 0.18666,-0.31999 0.27999,-0.65332 0.28,-1 -10e-6,-0.61332 -0.18667,-0.91999 -0.56,-0.92 -0.57334,1e-5 -0.98,0.58668 -1.22,1.76 l -0.3,1.56 1.82,0 -0.12,0.9 -1.88,0 -1.8,9.3 -4.04,0.4 1.92,-9.7 -1.42,0 0.18,-0.9 1.4,0 0.42,-1.58 c 0.24,-0.97332 0.87333,-1.68665 1.9,-2.14 0.74666,-0.31999 1.74666,-0.47999 3,-0.48 1.25333,1e-5 2.15999,0.16001 2.72,0.48 0.55999,0.32001 0.83999,0.69335 0.84,1.12 -10e-6,0.42668 -0.16668,0.77334 -0.5,1.04 -0.33334,0.26668 -0.68667,0.40001 -1.06,0.4 -0.73334,10e-6 -1.26001,-0.08 -1.58,-0.24"
         style=""
         id="path3004" />
      <path
         d="m 117.77281,376.42602 c -0.41334,1 -1.28,1.5 -2.6,1.5 -0.68,0 -1.23333,-0.23333 -1.66,-0.7 -0.36,-0.41333 -0.54,-0.82667 -0.54,-1.24 0,-1.08 0.24667,-2.67333 0.74,-4.78 l 0.74,-3.88 4.06,-0.4 -1.22,6.32 c -0.22667,0.98667 -0.34,1.65334 -0.34,2 0,0.76 0.27333,1.15333 0.82,1.18 m -2.96,-11.88 c 0,-0.51999 0.21333,-0.91999 0.64,-1.2 0.44,-0.27999 0.97333,-0.41999 1.6,-0.42 0.62666,1e-5 1.12666,0.14001 1.5,0.42 0.38666,0.28001 0.58,0.68001 0.58,1.2 0,0.52001 -0.21334,0.91334 -0.64,1.18 -0.41334,0.26668 -0.93334,0.40001 -1.56,0.4 -0.62667,1e-5 -1.14,-0.13332 -1.54,-0.4 -0.38667,-0.26666 -0.58,-0.65999 -0.58,-1.18"
         style=""
         id="path3006" />
      <path
         d="m 127.91719,377.92602 c -1.61334,0 -2.42001,-0.62667 -2.42,-1.88 0.0133,-0.34667 0.0733,-0.81333 0.18,-1.4 l 0.36,-1.84 c 0.35999,-1.73333 0.53999,-2.79333 0.54,-3.18 -1e-5,-0.77333 -0.22668,-1.15999 -0.68,-1.16 -0.76001,10e-6 -1.34001,0.99334 -1.74,2.98 l -1.18,6.08 -4.02,0.4 2.08,-10.62 3.28,-0.38 -0.32,1.96 c 0.62666,-1.30666 1.89999,-1.95999 3.82,-1.96 0.93332,1e-5 1.59332,0.20001 1.98,0.6 0.39999,0.38668 0.59999,1.02001 0.6,1.9 -1e-5,0.82667 -0.21335,2.20667 -0.64,4.14 -0.20001,0.86667 -0.30001,1.46667 -0.3,1.8 -1e-5,0.32 0.0866,0.57333 0.26,0.76 0.18665,0.18667 0.41332,0.29333 0.68,0.32 -0.13335,0.45333 -0.43335,0.81333 -0.9,1.08 -0.45335,0.26667 -0.98001,0.4 -1.58,0.4"
         style=""
         id="path3008" />
      <path
         d="m 140.09625,374.14602 c 0.33332,0.22667 0.49999,0.59334 0.5,1.1 -1e-5,0.49333 -0.12668,0.9 -0.38,1.22 -0.25334,0.32 -0.58667,0.58667 -1,0.8 -0.85334,0.44 -1.74001,0.66 -2.66,0.66 -0.92,0 -1.65334,-0.1 -2.2,-0.3 -0.53334,-0.2 -0.98,-0.48667 -1.34,-0.86 -0.70667,-0.70667 -1.06,-1.70666 -1.06,-3 0,-2.01333 0.54667,-3.63333 1.64,-4.86 1.17333,-1.31999 2.78,-1.97999 4.82,-1.98 1.26666,1e-5 2.21332,0.26668 2.84,0.8 0.46666,0.40001 0.69999,0.92667 0.7,1.58 -1e-5,2.34667 -2.02667,3.52 -6.08,3.52 -0.0533,0.34667 -0.08,0.66667 -0.08,0.96 0,0.61334 0.13333,1.04 0.4,1.28 0.28,0.22667 0.67333,0.34 1.18,0.34 0.50666,0 1.02666,-0.11333 1.56,-0.34 0.54666,-0.24 0.93333,-0.54666 1.16,-0.92 m -4.08,-2.18 c 0.94666,0 1.69333,-0.29333 2.24,-0.88 0.54666,-0.55999 0.81999,-1.28666 0.82,-2.18 -10e-6,-0.30666 -0.06,-0.53999 -0.18,-0.7 -0.10667,-0.17332 -0.27334,-0.25999 -0.5,-0.26 -0.22667,1e-5 -0.44001,0.0467 -0.64,0.14 -0.18667,0.08 -0.38001,0.26668 -0.58,0.56 -0.49334,0.66667 -0.88,1.77334 -1.16,3.32"
         style=""
         id="path3010" />
    </g>
    <g
       style="font-size:10px;font-style:normal;font-variant:normal;font-weight:normal;font-stretch:normal;line-height:125%;letter-spacing:0px;word-spacing:0px;fill:#000000;fill-opacity:1;stroke:none;font-family:Sansita One;-inkscape-font-specification:Sansita One"
       id="text2993">
      <path
         d="m 74.72763,385.03147 1.24,-6.52 2.03,-0.2 -0.31,1.53 c -0.07334,0.31334 -0.15667,0.58001 -0.25,0.8 0.146663,-0.18666 0.379997,-0.31666 0.7,-0.39 0.09333,-0.0267 0.196663,-0.04 0.31,-0.04 0.619995,10e-6 1.099995,0.19001 1.44,0.57 0.339994,0.37334 0.509994,0.92334 0.51,1.65 -6e-6,0.94667 -0.270006,1.71667 -0.81,2.31 -0.580005,0.64667 -1.39667,0.97 -2.45,0.97 -0.726669,0 -1.363335,-0.12 -1.91,-0.36 -0.193334,-0.0867 -0.36,-0.19333 -0.5,-0.32 m 2.01,-0.09 c 0.139998,0.12001 0.296664,0.18 0.47,0.18 0.17333,0 0.309997,-0.0333 0.41,-0.1 0.1,-0.0667 0.186663,-0.16666 0.26,-0.3 0.199996,-0.35999 0.379996,-1.08999 0.54,-2.19 0.04666,-0.31333 0.07,-0.62666 0.07,-0.94 -4e-6,-0.31332 -0.03667,-0.51999 -0.11,-0.62 -0.06667,-0.1 -0.16667,-0.14999 -0.3,-0.15 -0.40667,1e-5 -0.67667,0.39668 -0.81,1.19 l -0.53,2.93"
         style=""
         id="path3013" />
      <path
         d="m 84.120442,382.70147 c 0.239997,-0.42666 0.359997,-0.85666 0.36,-1.29 -3e-6,-0.28666 -0.103337,-0.42999 -0.31,-0.43 -0.160003,10e-6 -0.323336,0.13668 -0.49,0.41 -0.173336,0.27334 -0.286669,0.58667 -0.34,0.94 l -0.52,3.18 -2.07,0.2 1.02,-5.3 1.65,-0.2 -0.18,1.01 c 0.326664,-0.67332 0.856664,-1.00999 1.59,-1.01 0.386662,10e-6 0.683329,0.10001 0.89,0.3 0.213328,0.20001 0.319995,0.50668 0.32,0.92 -5e-6,0.40667 -0.136672,0.74001 -0.41,1 -0.266671,0.26001 -0.630004,0.39001 -1.09,0.39 -0.200003,1e-5 -0.340003,-0.04 -0.42,-0.12"
         style=""
         id="path3015" />
      <path
         d="m 90.255286,383.82147 c 0.166662,0.11334 0.249995,0.29667 0.25,0.55 -5e-6,0.24667 -0.06334,0.45001 -0.19,0.61 -0.126671,0.16 -0.293337,0.29334 -0.5,0.4 -0.42667,0.22 -0.870003,0.33 -1.33,0.33 -0.460002,0 -0.826668,-0.05 -1.1,-0.15 -0.266668,-0.1 -0.490001,-0.24333 -0.67,-0.43 -0.353334,-0.35333 -0.53,-0.85333 -0.53,-1.5 0,-1.00666 0.273333,-1.81666 0.82,-2.43 0.586665,-0.65999 1.389998,-0.98999 2.41,-0.99 0.633329,10e-6 1.106662,0.13334 1.42,0.4 0.233328,0.20001 0.349995,0.46334 0.35,0.79 -5e-6,1.17334 -1.013338,1.76001 -3.04,1.76 -0.02667,0.17334 -0.04,0.33334 -0.04,0.48 -2e-6,0.30667 0.06666,0.52001 0.2,0.64 0.139998,0.11334 0.336664,0.17001 0.59,0.17 0.25333,1e-5 0.51333,-0.0567 0.78,-0.17 0.273329,-0.11999 0.466663,-0.27333 0.58,-0.46 m -2.04,-1.09 c 0.473331,10e-6 0.846664,-0.14666 1.12,-0.44 0.27333,-0.27999 0.409996,-0.64332 0.41,-1.09 -4e-6,-0.15332 -0.03,-0.26999 -0.09,-0.35 -0.05334,-0.0867 -0.13667,-0.12999 -0.25,-0.13 -0.113337,10e-6 -0.220003,0.0233 -0.32,0.07 -0.09334,0.04 -0.190003,0.13334 -0.29,0.28 -0.246669,0.33334 -0.440002,0.88667 -0.58,1.66"
         style=""
         id="path3017" />
      <path
         d="m 98.977786,383.84147 c -0.440007,0.60667 -0.87334,1.07001 -1.3,1.39 -0.420006,0.32 -0.850006,0.48 -1.29,0.48 -0.433338,0 -0.726671,-0.0433 -0.88,-0.13 l 0,-2.2 c -0.380004,1.01334 -0.910003,1.71667 -1.59,2.11 -0.246669,0.14667 -0.486669,0.22 -0.72,0.22 -0.446668,0 -0.766668,-0.0433 -0.96,-0.13 -0.04667,-1.52666 -0.09,-2.49999 -0.13,-2.92 -0.04,-0.42666 -0.07667,-0.76999 -0.11,-1.03 -0.06667,-0.51999 -0.213334,-0.88666 -0.44,-1.1 0.286666,-0.21332 0.629999,-0.31999 1.03,-0.32 0.773331,10e-6 1.213331,0.48001 1.32,1.44 0.02666,0.22667 0.04,0.46001 0.04,0.7 -3e-6,0.36001 -0.04,1.16667 -0.12,2.42 0.159997,-0.0733 0.32333,-0.23999 0.49,-0.5 0.17333,-0.26666 0.329997,-0.57999 0.47,-0.94 0.31333,-0.83333 0.469996,-1.60999 0.47,-2.33 -4e-6,-0.11332 -0.01667,-0.22999 -0.05,-0.35 -0.02667,-0.11999 -0.05667,-0.19666 -0.09,-0.23 0.233329,-0.13999 0.526662,-0.20999 0.88,-0.21 0.359995,10e-6 0.623328,0.12334 0.79,0.37 0.173328,0.24001 0.283328,0.58334 0.33,1.03 0.05333,0.56667 0.07999,1.02001 0.08,1.36 -6e-6,0.47334 -0.02334,1.06001 -0.07,1.76 0.333327,-0.23999 0.63666,-0.75333 0.91,-1.54 0.273326,-0.78666 0.409993,-1.45999 0.41,-2.02 -7e-6,-0.24666 -0.02001,-0.44332 -0.06,-0.59 0.219993,-0.24666 0.519992,-0.36999 0.9,-0.37 0.233325,10e-6 0.433325,0.0633 0.6,0.19 0.173324,0.12668 0.259994,0.31001 0.260004,0.55 -1e-5,0.23334 -0.0367,0.47668 -0.11,0.73 -0.06668,0.25334 -0.156679,0.51001 -0.270004,0.77 -0.220008,0.52001 -0.483341,0.98334 -0.79,1.39"
         style=""
         id="path3019" />
      <path
         d="m 102.82404,384.96147 c -0.20667,0.5 -0.64001,0.75 -1.3,0.75 -0.34,0 -0.61667,-0.11666 -0.83,-0.35 -0.18,-0.20666 -0.27,-0.41333 -0.27,-0.62 0,-0.53999 0.12333,-1.33666 0.37,-2.39 l 0.37,-1.94 2.03,-0.2 -0.61,3.16 c -0.11334,0.49334 -0.17001,0.82667 -0.17,1 -1e-5,0.38001 0.13666,0.57667 0.41,0.59 m -1.48,-5.94 c -1e-5,-0.25999 0.10666,-0.45999 0.32,-0.6 0.21999,-0.13999 0.48666,-0.20999 0.8,-0.21 0.31333,10e-6 0.56333,0.07 0.75,0.21 0.19333,0.14001 0.28999,0.34001 0.29,0.6 -1e-5,0.26001 -0.10667,0.45668 -0.32,0.59 -0.20667,0.13334 -0.46667,0.20001 -0.78,0.2 -0.31334,1e-5 -0.57001,-0.0667 -0.77,-0.2 -0.19334,-0.13332 -0.29001,-0.32999 -0.29,-0.59"
         style=""
         id="path3021" />
      <path
         d="m 107.89622,385.71147 c -0.80667,0 -1.21,-0.31333 -1.21,-0.94 0.007,-0.17333 0.0367,-0.40666 0.09,-0.7 l 0.18,-0.92 c 0.18,-0.86666 0.27,-1.39666 0.27,-1.59 0,-0.38666 -0.11333,-0.57999 -0.34,-0.58 -0.38,10e-6 -0.67,0.49668 -0.87,1.49 l -0.59,3.04 -2.01,0.2 1.04,-5.31 1.64,-0.19 -0.16,0.98 c 0.31333,-0.65332 0.95,-0.97999 1.91,-0.98 0.46667,10e-6 0.79666,0.10001 0.99,0.3 0.2,0.19334 0.3,0.51001 0.3,0.95 0,0.41334 -0.10667,1.10334 -0.32,2.07 -0.1,0.43334 -0.15,0.73334 -0.15,0.9 0,0.16001 0.0433,0.28667 0.13,0.38 0.0933,0.0933 0.20666,0.14667 0.34,0.16 -0.0667,0.22667 -0.21667,0.40667 -0.45,0.54 -0.22667,0.13334 -0.49,0.2 -0.79,0.2"
         style=""
         id="path3023" />
      <path
         d="m 110.64575,381.33147 c 0.22667,-0.31999 0.51,-0.58666 0.85,-0.8 0.34667,-0.21332 0.73,-0.31999 1.15,-0.32 0.42,10e-6 0.73,0.0667 0.93,0.2 l 1.96,-0.2 -0.68,3.84 c -0.23333,1.30667 -0.59667,2.21667 -1.09,2.73 -0.47333,0.48667 -1.17,0.73 -2.09,0.73 -0.7,0 -1.25,-0.11 -1.65,-0.33 -0.4,-0.22 -0.59999,-0.51333 -0.6,-0.88 1e-5,-0.27333 0.10334,-0.49 0.31,-0.65 0.20667,-0.15333 0.47,-0.23 0.79,-0.23 0.28,0 0.52667,0.0633 0.74,0.19 0.12667,0.0667 0.22,0.14667 0.28,0.24 -0.15333,0.13334 -0.23,0.31 -0.23,0.53 0,0.28667 0.13334,0.43 0.4,0.43 0.44667,0 0.79667,-0.52666 1.05,-1.58 0.0733,-0.28666 0.14,-0.57333 0.2,-0.86 -0.3,0.36667 -0.79,0.55001 -1.47,0.55 -0.47333,10e-6 -0.84666,-0.11333 -1.12,-0.34 -0.27333,-0.22666 -0.41,-0.60666 -0.41,-1.14 0,-0.33333 0.0567,-0.68666 0.17,-1.06 0.11334,-0.37999 0.28334,-0.72999 0.51,-1.05 m 1.3,2.14 c 0,0.45334 0.11667,0.68001 0.35,0.68 0.16,10e-6 0.31667,-0.0867 0.47,-0.26 0.12,-0.13999 0.20333,-0.31333 0.25,-0.52 l 0.51,-2.57 c -0.0333,-0.007 -0.0667,-0.0167 -0.1,-0.03 -0.0667,-0.0267 -0.14333,-0.04 -0.23,-0.04 -0.40666,10e-6 -0.73,0.33334 -0.97,1 -0.18666,0.52001 -0.28,1.10001 -0.28,1.74"
         style=""
         id="path3025" />
    </g>
    <path
       style="fill:#000000;fill-opacity:1;stroke:none"
       d="m 47.612487,381.76328 c 3.300828,0.96192 9.084504,1.84685 15.407776,1.72417 4.228504,-0.082 7.921551,-0.77586 10.935183,-1.34234 -3.042127,0.45734 -6.679716,0.7611 -10.612674,0.8374 -6.316264,0.12255 -12.000703,-0.36356 -15.730285,-1.21923 z"
       id="path3777"
       inkscape:connector-curvature="0"
       sodipodi:nodetypes="cscsc" />
    <path
       style="fill:#000000;fill-opacity:1;stroke:none"
       d="m 142.24282,383.34355 c -3.30083,-0.96192 -9.0845,-1.84685 -15.40777,-1.72417 -4.22851,0.082 -7.92155,0.77586 -10.93519,1.34234 3.04213,-0.45734 6.67972,-0.7611 10.61268,-0.8374 6.31626,-0.12255 12.0007,0.36356 15.73028,1.21923 z"
       id="path3777-0"
       inkscape:connector-curvature="0"
       sodipodi:nodetypes="cscsc" />
  </g>
</svg>
