<?xml version="1.0" encoding="UTF-8" standalone="no"?>
<!-- Created with Inkscape (http://www.inkscape.org/) -->

<svg
   xmlns:dc="http://purl.org/dc/elements/1.1/"
   xmlns:cc="http://creativecommons.org/ns#"
   xmlns:rdf="http://www.w3.org/1999/02/22-rdf-syntax-ns#"
   xmlns:svg="http://www.w3.org/2000/svg"
   xmlns="http://www.w3.org/2000/svg"
   xmlns:sodipodi="http://sodipodi.sourceforge.net/DTD/sodipodi-0.dtd"
   xmlns:inkscape="http://www.inkscape.org/namespaces/inkscape"
   width="37"
   height="37"
   id="svg2"
   version="1.1"
   inkscape:version="0.48.4 r9939"
   sodipodi:docname="magglass.svg">
  <defs
     id="defs4" />
  <sodipodi:namedview
     id="base"
     pagecolor="#ffffff"
     bordercolor="#666666"
     borderopacity="1.0"
     inkscape:pageopacity="0.0"
     inkscape:pageshadow="2"
     inkscape:zoom="1.4"
     inkscape:cx="-127.16878"
     inkscape:cy="-82.165113"
     inkscape:document-units="px"
     inkscape:current-layer="layer1"
     showgrid="false"
     inkscape:window-width="1600"
     inkscape:window-height="838"
     inkscape:window-x="-8"
     inkscape:window-y="-8"
     inkscape:window-maximized="1"
     fit-margin-top="0"
     fit-margin-left="0"
     fit-margin-right="0"
     fit-margin-bottom="0" />
  <metadata
     id="metadata7">
    <rdf:RDF>
      <cc:Work
         rdf:about="">
        <dc:format>image/svg+xml</dc:format>
        <dc:type
           rdf:resource="http://purl.org/dc/dcmitype/StillImage" />
        <dc:title></dc:title>
      </cc:Work>
    </rdf:RDF>
  </metadata>
  <g
     inkscape:label="Layer 1"
     inkscape:groupmode="layer"
     id="layer1"
     transform="translate(-597.53867,-615.22303)">
    <path
       style="fill:#cdcdcd;fill-opacity:1;fill-rule:evenodd;stroke:none"
       d="m 600.97047,618.80451 c -4.57483,4.57483 -4.57629,11.99189 -10e-4,16.56672 4.57483,4.57483 11.99335,4.57483 16.56818,0 4.57483,-4.57483 4.57337,-11.99189 -10e-4,-16.56672 -4.57483,-4.57483 -11.99042,-4.57483 -16.56526,0 z m 1.60305,1.60304 c 3.68938,-3.68938 9.66979,-3.68938 13.35917,0 3.68938,3.68938 3.69084,9.67125 10e-4,13.36063 -3.68938,3.68938 -9.67271,3.68938 -13.36209,0 -3.68938,-3.68938 -3.68792,-9.67125 10e-4,-13.36063 z"
       id="path2985"
       inkscape:connector-curvature="0" />
    <rect
       style="fill:#cdcdcd;fill-opacity:1;stroke:none"
       id="rect3791"
       width="4.3755398"
       height="5.7449827"
       x="-14.804823"
       y="885.14435"
       transform="matrix(0.70710678,-0.70710678,0.70710678,0.70710678,0,0)" />
    <rect
       style="fill:#cdcdcd;fill-opacity:1;stroke:none"
       id="rect3795"
       width="6.7553654"
       height="15.458247"
       x="-16.007261"
       y="890.42169"
       transform="matrix(0.70710678,-0.70710678,0.70710678,0.70710678,0,0)" />
    <path
       sodipodi:type="arc"
       style="fill:#cdcdcd;fill-opacity:1;fill-rule:evenodd;stroke:none"
       id="path3799"
       sodipodi:cx="284.98929"
       sodipodi:cy="950.96814"
       sodipodi:rx="50.886433"
       sodipodi:ry="28.663078"
       d="m 335.87572,950.96814 c 0,15.83018 -22.78263,28.66308 -50.88643,28.66308 -28.1038,0 -50.88643,-12.8329 -50.88643,-28.66308 0,-15.83018 22.78263,-28.66308 50.88643,-28.66308 28.1038,0 50.88643,12.8329 50.88643,28.66308 z"
       transform="matrix(0.04693577,-0.04693577,0.04680489,0.04680489,573.73571,618.34938)" />
  </g>
</svg>
